# xmcd
#
# Track frame offsets: 
#        150
#        14792
#        28482
#        45894
#        59029
#        74738
#        93535
#        111102
#        128741
#        140844
#        174971
#        187978
#
# Disc length: 2789 seconds
#
# Revision: 0
# Processed by: cddbd v1.5.2PL0 Copyright (c) Steve Scherf et al.
# Submitted via: ExactAudioCopy v0.99pb5
#
DISCID=b50ae30c
DTITLE=Кирилл Комаров - Путь дурака
DYEAR=2009
DGENRE=Blues
TTITLE0=маска
TTITLE1=мята
TTITLE2=переключая каналы
TTITLE3=быть лохом
TTITLE4=станное чувство
TTITLE5=лиза сказала
TTITLE6=делая мир
TTITLE7=арамболь
TTITLE8=если б я мог
TTITLE9=тимоти лири
TTITLE10=и восходит солнце
TTITLE11=путь дурака
EXTD=
EXTT0=
EXTT1=
EXTT2=
EXTT3=
EXTT4=
EXTT5=
EXTT6=
EXTT7=
EXTT8=
EXTT9=
EXTT10=
EXTT11=
PLAYORDER=
